<?xml version="1.0" encoding="utf-8"?>
<!-- Generator: Adobe Illustrator 25.2.2, SVG Export Plug-In . SVG Version: 6.00 Build 0)  -->
<svg version="1.1" id="Layer_1" xmlns="http://www.w3.org/2000/svg" xmlns:xlink="http://www.w3.org/1999/xlink" x="0px" y="0px"
	 viewBox="0 0 244 100" style="enable-background:new 0 0 244 100;" xml:space="preserve">
<style type="text/css">
	.st0{fill-rule:evenodd;clip-rule:evenodd;fill:#154273;}
	.st1{fill-rule:evenodd;clip-rule:evenodd;fill:#FFFFFF;}
	.st2{enable-background:new    ;}
</style>
<desc>Created with Sketch.</desc>
<polygon id="Fill-1" class="st0" points="0,100 50,100 50,0 0,0 "/>
<path id="Fill-2" class="st1" d="M27.5,66.2c0,0.2,0.1,0.5,0.4,0.4l0,0c0,0.2-0.5,0.5-0.7,0.2c-0.2,0.4-0.1,0.7,0.2,0.9
	c0,0,0,0,0,0.1C27.3,68,27,68,26.8,67.6c-0.3,0.2-0.3,0.7-0.1,0.9c0,0-0.9,0.5-1.6,0.1c-0.5-0.2-0.9-0.6-1.6-0.5
	c0.1-0.9,0.6-1.2,1.4-1.3c0.7-0.1,0.8-0.4,0.7-0.7c-0.2-0.1-0.7,0.2-0.7,0.2c-0.1-0.1,0-0.3,0-0.3c0-0.1-0.1-0.2-0.1-0.2
	c0.5,0,0.6-0.1,0.6-0.1c0.1-0.5-0.4-0.6-0.8-0.3c-0.2-0.2-0.2-0.4-0.2-0.4c-0.1,0-0.1-0.1-0.1-0.1c0-0.1,0.6-0.4,0.7-0.5
	c0-0.2,0.2-0.4,0.8-0.3c0.1-0.2,0-0.7-0.1-0.9c0,0,0-0.1,0.1,0c0.2,0.1,0.4,0.6,0.6,0.6c0,0,0.7-0.4,0.7-0.3l0.1,0.8
	c0.1,0.1,0.6,0,0.8,0.1c0.1,0,0.1,0.1,0,0.1c-0.2,0-0.7,0.3-0.8,0.4C27.7,65.3,27.5,66,27.5,66.2L27.5,66.2z M21.4,66.6
	c-0.1,0.1-0.2,0-0.3,0l0,0c0,0.1,0.2,0.4,0.4,0.4c0.1,0,0.3-0.1,0.3-0.1s0.9,0.3,1.4,0.4c-0.2,0.2-0.3,0.5-0.3,0.8
	c-0.4-0.2-1.9-1-1.9-1l-0.5,0.6c-0.1,0.1-0.4-0.2-0.4-0.3l0.4-0.5c-0.1-0.1-0.4,0-0.5,0l0,0c0-0.1,0.2-0.4,0.7-0.3
	c0-0.3-0.4-0.2-0.5-0.2l0,0c0.1-0.1,0.4-0.4,0.8-0.2l0.2-0.2l-0.3-0.3l0.2-0.3l0.2,0.3l1.7-2.4c0-0.1,0.4-0.2,0.5-0.2
	c0,0.1,0,0.5,0,0.5L21.8,66l0.4,0.1L22,66.4l-0.4-0.2L21.4,66.6z M34.4,79.1L34.4,79.1c-0.2-0.2-0.4-0.4-0.4-0.6
	c0-0.4,0.8-0.9,1.1-0.9c0.2,0,0.4,0.3,0.8,0.3c0.2,0,0.5-0.1,0.7-0.4l0,0c-0.2,0-0.6,0.1-0.9-0.7c-0.2-0.9-0.3-1.5,0.1-1.9
	c0.3-0.3,1.8-0.8,2.6-1.1c0,0,0,0,0-0.1c-0.2-0.1-0.4-0.2-0.5-0.5c0-0.2,0-0.4,0.2-0.5c-0.4-0.4-1.2-0.7-1.6-0.7
	c-1.6,0-3,2.2-3.6,2.2c-0.1,0-0.2,0-0.3-0.2l0,0c0,0.7,0.3,0.7,0.5,0.7c0.1,0,0.2,0,0.3-0.1l0,0v0.1c0,0.8,0.8,1.6,0.8,1.6
	c-0.4,0.4-1.3,1-1.5,0.7c-0.1-0.1-0.6-1-1.2-0.3v0.1c0.4,0,0.6,0.2,0.5,0.6C31.6,77,30.9,77,30.9,78c0,0,0,0,0.1,0
	c0.3-0.5,0.9-0.2,1-0.1c-0.4,0.1-1,0.5-0.4,1.2l0,0c0.1-0.5,0.4-0.6,0.6-0.6c0.5,0,0.9,0.5,1.3,0C33.5,79.2,34.2,79.1,34.4,79.1
	L34.4,79.1z M16.7,78.5c0.4,0.5,0.8,0,1.3,0c0.2,0,0.5,0.1,0.6,0.6l0,0c0.5-0.8-0.1-1.2-0.4-1.2c0.1-0.1,0.6-0.4,1,0.1h0.1
	c0-0.9-0.7-1-1.2-0.6c-0.1-0.4,0.2-0.6,0.5-0.6c0,0,0.1,0,0-0.1C18,76,17.5,76.9,17.4,77c-0.3,0.3-1.2-0.3-1.5-0.7
	c0,0,0.8-0.8,0.8-1.6v-0.1l0,0c0.1,0,0.2,0.1,0.3,0.1c0.2,0,0.5-0.1,0.5-0.7l0,0c-0.1,0.1-0.2,0.2-0.3,0.2c-0.6,0-2-2.2-3.6-2.2
	c-0.4,0-1.2,0.3-1.6,0.7c0.2,0.1,0.2,0.3,0.2,0.5c0,0.3-0.2,0.4-0.5,0.5c0,0,0,0,0,0.1c0.8,0.3,2.3,0.9,2.6,1.1
	c0.4,0.3,0.3,1,0.1,1.9s-0.7,0.7-0.9,0.7l0,0c0.2,0.3,0.5,0.4,0.7,0.4c0.4,0,0.6-0.3,0.8-0.3c0.4,0,1.1,0.5,1.1,0.9
	c0,0.2-0.2,0.4-0.4,0.6l0,0C15.9,79.1,16.6,79.2,16.7,78.5L16.7,78.5z M24.3,65.7c0.3-0.1,0.6,0,0.6,0v0.1c-0.6,0.1-0.6,0.3-1,0.3
	c-0.2,0-0.5-0.2-0.4-0.6c0,0,0,0,0.1,0C23.6,65.6,23.8,65.8,24.3,65.7L24.3,65.7z M25.7,64.7c-0.4,0-0.6,0.1-0.6,0.2
	C25.3,65.1,25.5,65.1,25.7,64.7L25.7,64.7z M22.4,75c-0.2,0.3-0.4,0-0.7,0c-0.3,0-0.3,0.2-0.3,0.3l0,0c-0.3-0.4,0-0.6,0.2-0.7
	c0,0-0.3-0.2-0.5,0l0,0c0-0.5,0.4-0.6,0.7-0.3c0-0.2-0.1-0.3-0.3-0.3l0,0c0.1-0.1,0.2-0.1,0.3-0.1c0.3,0,0.3,0.4,0.5,0.4
	c0.3,0,0.7-0.4,0.7-0.4s-0.3-0.8-0.2-1.2l0,0c-0.1,0.1-0.5,0.1-0.5-0.4l0,0c0.2,0.2,0.4,0,0.5-0.2c0.1-0.1,0.8-1.2,1.8-1.2
	c0.2,0,0.5,0.1,0.7,0.3c-0.3,0.4,0,0.8,0.2,0.7l0,0c-1.3,0.5-1.8,0.7-1.8,1.7c0,0.6,0.2,0.9,0.5,0.8l0,0c-0.1,0.1-0.3,0.2-0.4,0.2
	c-0.3,0-0.3-0.1-0.4-0.1s-0.6,0.3-0.6,0.5c0,0.1,0.1,0.2,0.2,0.3l0,0C22.9,75.3,22.5,75.3,22.4,75L22.4,75z M20.7,70.5l-0.5-0.1v0.1
	l-0.6-0.3c0,0,0.4,0,0.5,0c0,0,0.1,0,0-0.1c-0.2-0.2-0.4-0.4-0.4-0.4s0.2,0.1,0.6,0.2c0,0,0.1,0,0,0c-0.2-0.2-0.4-0.6-0.4-0.6
	s0.5,0.3,0.6,0.4c0,0,0.1,0,0,0c-0.1-0.3-0.3-0.6-0.3-0.6l0.5,0.5l0,0c0-0.2-0.1-0.6-0.1-0.6l0.4,0.5h0.1c0-0.1,0-0.6,0-0.6
	s0.2,0.4,0.2,0.5c0,0,0,0,0.1,0l0.2-0.5v0.6h-0.1l-0.1,0.7c0.7-0.2,1.7-1.4,2.4-1.4c0.8,0,1.1,1,2.7,0.5c0.4,0.6,0.5,1.1,0.7,1.8
	c0.6,0.6,1.4,0.4,1.4-0.2c0-0.8-0.9-1-0.9-1.8c0-0.4,0.3-0.9,1-0.9c0.4,0,0.9,0.2,1.2,0.2c0.4,0,0.5-0.3,0.5-0.4s0.1-0.1,0.1,0
	s0,0.2,0,0.4c0,0.5-0.8,0.6-0.9,0.5c0,0-0.1,0,0,0c0.1,0.1,0.1,0.4,0,0.6l0,0c-0.1-0.4-0.5-0.8-0.9-0.8c-0.1,0-0.4,0.1-0.4,0.4
	c0,0.5,1,0.9,1,1.9s-1,1.3-2,1c0,1,1.5,1.5,1.5,0.9l0,0c0.2,0.3,0.1,0.5-0.2,0.6c0.3,0.1,0.3,0.6,0.4,0.9c0.1,0.5,0.6,0.2,0.6,0.2
	l0,0c-0.2,0.5-0.7,0.3-0.7,0.3c-0.3,0.2,0.1,0.3,0.3,0.4l0,0c-0.2,0.1-0.5,0.2-0.7-0.1c-0.1,0.3-0.4,0.3-0.5,0.3
	c-0.2,0-0.3,0.2-0.3,0.4l0,0c-0.4-0.3-0.2-0.6,0-0.7c0,0-0.3-0.1-0.5,0.2l0,0c-0.2-0.5,0.2-0.7,0.5-0.5c0-0.1-0.2-0.3-0.6-0.2l0,0
	c0.1-0.2,0.3-0.4,0.6-0.2c0.2,0.1,0.5-0.1,0.5-0.1c-0.6-1.3-1.9-0.2-2.2-1.2l0,0c-0.1,0.2-0.6,0.2-0.7-0.2l0,0
	c0.1,0.1,0.3,0.2,0.5-0.2c0.2-0.2,0.2-0.5,0.2-0.7c0-0.8-0.8-2.1-2-2.1c-0.8,0-1.6,0.3-2.2,0.7l0.6,0.1c-0.1,0.6-0.6,0.9-1.1,0.8
	l0.1-0.7c-0.1,0-0.3,0.1-0.4,0.3l0,0c-0.1-0.4,0.2-0.6,0.3-0.6l0,0c-0.3,0-0.4,0.2-0.5,0.3l0,0C20.6,70.8,20.6,70.6,20.7,70.5
	L20.7,70.5z M25,82.6c4.9,0,9.8,0.3,10.5,1c0.1,0.1,0.1,0,0.1,0V81c0-0.8-5.1-1.2-10.5-1.2S14.6,80.2,14.6,81v2.6c0,0,0,0.1,0.1,0
	C15.2,82.9,20.2,82.6,25,82.6L25,82.6z M33,83.8v1.1c0,1.9,3.1,0.1,6.2-0.1c2.5-0.2,3.2,0.5,3.2,0.5l-0.5-2.5c0-0.1-0.6-0.5-2.3-0.5
	c-2.1,0-3.1,0.4-3.5,0.5v1.3c0,0.3-0.2,0.5-0.4,0.5C35.7,84.5,35.3,83.8,33,83.8L33,83.8z M14.4,84.6c-0.2-0.1-0.4-0.2-0.4-0.5v-1.3
	c-0.4-0.1-1.4-0.5-3.5-0.5c-1.7,0-2.3,0.4-2.3,0.5l-0.5,2.5c0,0,0.7-0.6,3.2-0.5c3,0.2,6.2,2,6.2,0.1v-1.1
	C14.7,83.8,14.4,84.5,14.4,84.6L14.4,84.6z M20.1,62.7c-0.7,0.2-1.2,0.3-1.5,0.4c0-0.3,0.1-0.6,0.4-0.7v-0.1c-0.6-0.4-1,0.4-1,0.4
	c-0.2,0-0.6,0.1-0.6,0.4c0,0.9-2.1,1.4-2.6,1.5C15.7,64.9,16,66,16,66c0.6-0.6,1.4-1.2,1.5-1.2c0.2,0,0.2,0.2,0.2,0.3
	c0,0,0,0.1,0.1,0c0.3-0.5,0.2-0.6,0.1-0.7c0-0.1,0-0.5,0.5-0.5v6.2l-0.2,0.1c-0.1,0-1-0.8-2.1-1.5c-1-0.7-1.6-0.3-2.8,0.4
	c-1.5,0.8-3.1,0.1-3.1,0.1c-1.3,1-1.8,3.7-1.8,3.7c-0.3,0.1-0.7,0.2-1.1,0.2c-1,0-1.2-0.6-1.2-1c0-1.6,2-2.2,2-3.8
	c0-0.4-0.2-1.9-2.1-1.9c-0.2,0-1.7,0-1.7,0c-0.7,0-0.9-0.5-1-0.7c0-0.1-0.1,0-0.1,0c0.1,0.1-0.1,0.3-0.1,0.7c0,0.6,0.4,1,1.1,1
	c0.3,0,0.6-0.1,0.7-0.1s0.1,0,0.1,0.1c-0.3,0.4-0.3,1-0.2,1.2h0.1c0.2-0.7,0.8-1.3,1.6-1.3c1,0,1,0.9,1,1.1c0,1.3-2.2,2.2-2.2,3.9
	c0,1.8,1.9,2.1,2.9,1.9c-0.1,1.8-2.1,2.4-2.1,1.1c0-0.1,0-0.1-0.1,0c-0.3,0.6-0.2,1.2,0.6,1.3c0.1,0,0,0,0,0.1
	c-0.8,0.5-0.4,2.4-0.3,3c0.1,0.8-0.8,0.7-0.8,0.7s-0.1,0,0,0.1c0.7,0.6,1.5,0,1.5,0c0.5,0.2,0.2,0.6-0.2,0.9c-0.1,0-0.1,0.1,0,0.1
	s0.9,0.1,1.1-0.6c0.4,0.4,0.9,0.3,1,0.2c0.2-0.1,0.9-0.4,1,0.5c0,0.1,0,0,0.1,0c0.6-0.7,0-1.2-0.4-1.3c0,0,0.5-0.4,0.9,0.1h0.1
	c0-0.9-0.7-1-1.2-0.6c0-0.1-0.2-0.6,0.6-0.6c0,0,0.1,0,0-0.1c-0.6-0.6-1.1-0.1-1.2,0.1c-0.3,0.3-0.9,0.2-1,0.2
	c0.2-3.3,3.1-2.1,3.5-3.7c0-0.1,0.1-0.1,0.1,0c0.1,0.4,1.1,0.4,1.3-0.3c0,0,0-0.1,0,0c-0.8,0.8-2.7-1.8-0.1-3.9
	c2.2-1.8,4.2-0.8,4.9-0.2c0,0.3-0.1,0.3-0.2,0.4c0,0,0,0,0,0.1c0.2,0.1,0.5,0.1,0.6-0.1c0.5,0.3,0.1,0.7-0.1,0.9v0.1
	c0.4,0.1,0.8-0.4,0.8-0.6h0.1V74c0,2.7,3.1,3,6.4,5.3c3.4-2.3,6.4-2.6,6.4-5.3v-1.9h0.1c0,0.3,0.4,0.7,0.8,0.6c0,0,0.1,0,0-0.1
	c-0.2-0.1-0.6-0.5-0.1-0.9c0.1,0.2,0.4,0.2,0.6,0.1c0.1,0,0-0.1,0-0.1c-0.1,0-0.3-0.1-0.2-0.4c0.7-0.6,2.7-1.6,4.9,0.2
	c2.6,2.1,0.7,4.7-0.2,3.9l0,0c0.2,0.8,1.2,0.7,1.3,0.3c0,0,0-0.1,0.1,0c0.4,1.6,3.3,0.4,3.5,3.7c-0.1,0-0.7,0.1-1-0.2
	c-0.1-0.1-0.6-0.7-1.2-0.1v0.1c0.8,0,0.6,0.5,0.6,0.6c-0.5-0.4-1.3-0.3-1.2,0.6c0,0.1,0,0.1,0.1,0c0.4-0.5,0.9-0.2,0.9-0.1
	c-0.4,0.1-1,0.5-0.4,1.3c0,0,0.1,0.1,0.1,0c0.1-0.9,0.9-0.6,1-0.5s0.7,0.2,1-0.2c0.1,0.7,1,0.6,1.1,0.6s0.1,0,0-0.1
	c-0.4-0.2-0.7-0.7-0.2-0.9c0,0,0.7,0.7,1.3-0.1c0.1-0.1,0-0.1,0-0.1c-0.1,0-0.9,0.1-0.8-0.7c0-0.6,0.5-2.5-0.3-3c0,0-0.1-0.1,0-0.1
	c0.8-0.2,0.9-0.7,0.6-1.3c0-0.1-0.1-0.1-0.1,0c-0.1,1.3-2.1,0.7-2.1-1.1c1.1,0.3,2.9-0.1,2.9-1.9c0-1.7-2.2-2.7-2.2-3.9
	c0-0.2,0-1.1,1-1.1c0.8,0,1.5,0.6,1.6,1.3c0,0,0,0,0.1,0c0.1-0.2,0.1-0.8-0.2-1.2c0,0,0-0.1,0.1-0.1c0.1,0.1,0.4,0.1,0.7,0.1
	c0.7,0,1.1-0.4,1.1-1c0-0.4-0.1-0.6-0.1-0.7s0-0.1-0.1,0c-0.1,0.2-0.3,0.7-1,0.7c0,0-1.4,0-1.7,0c-1.9,0-2.1,1.5-2.1,1.9
	c0,1.5,2,2.2,2,3.8c0,0.4-0.2,1-1.2,1c-0.4,0-0.9-0.1-1.1-0.2c0,0-0.5-2.8-1.8-3.7c0,0-1.6,0.8-3.1-0.1c-1.2-0.6-1.7-1.1-2.8-0.4
	c-1,0.7-1.9,1.5-2.1,1.5L31.5,70v-6.2c0.5-0.1,0.5,0.4,0.5,0.5s-0.2,0.3,0.1,0.7h0.1c0-0.1,0.1-0.3,0.2-0.3c0.2,0,0.9,0.6,1.5,1.2
	c0,0,0.4-1.1,1.2-1.4c-0.5-0.1-2.6-0.6-2.6-1.5c0-0.3-0.3-0.4-0.6-0.4c0,0-0.4-0.9-1-0.4v0.1c0.3,0.1,0.4,0.4,0.4,0.7
	c-0.6-0.2-3.3-0.9-6.4-0.9c-1.5,0-2.9,0.2-4,0.4v2.1H20v-1.9H20.1z M25,60.7c2.7,0,4.2,0.5,4.2,0.5c0-1.3,0-2.1,0.8-2
	c-0.4-1.1,1.4-1.6,1.4-3.1c0-1-0.7-1.1-0.9-1.1c-0.6,0-0.5,0.4-1,0.4c-0.1,0-0.1,0-0.1,0c0,0.2,0.1,0.5,0.4,0.5s0.3-0.3,0.6-0.3
	c0.1,0,0.2,0.1,0.2,0.4c0,0.6-0.4,1.3-0.9,1.9c-0.1-0.2-0.3-0.2-0.4-0.2c-0.3,0-0.5,0.3-0.5,0.7c0,0.1,0,0.2,0.1,0.4
	c-0.2,0.1-0.3,0.1-0.4,0.1c-0.2,0-0.6-0.1-0.6-0.6c0-1.1,1.4-2,1.4-3.4c0-0.6-0.4-1.3-1.3-1.3c-1,0-0.8,0.9-1.6,0.9h-0.1
	c0,0.1,0.1,0.5,0.6,0.5s0.6-0.8,1-0.8c0.2,0,0.4,0.1,0.4,0.6c0,0.4-0.2,1.1-0.5,1.8c-0.1-0.1-0.3-0.2-0.4-0.2
	c-0.4,0-0.6,0.3-0.6,0.8c0,0.3,0.1,0.5,0.3,0.7c-0.2,0.3-0.4,0.5-0.7,0.5c-0.6,0-0.8-0.3-0.8-0.7s0.7-0.5,0.7-1.1
	c0-0.4-0.3-0.6-0.5-0.6c-0.3,0-0.4,0.2-0.4,0.2S25.2,56,25,56c-0.3,0-0.5,0.2-0.5,0.6c0,0.6,0.7,0.7,0.7,1.1c0,0.4-0.3,0.7-0.8,0.7
	c-0.3,0-0.5-0.2-0.7-0.5c0.2-0.2,0.3-0.4,0.3-0.7c0-0.4-0.3-0.8-0.6-0.8c-0.2,0-0.3,0.1-0.4,0.2c-0.3-0.7-0.5-1.3-0.5-1.8
	s0.2-0.6,0.4-0.6c0.4,0,0.5,0.8,1,0.8c0.4,0,0.6-0.5,0.6-0.5s0,0-0.1,0c-0.8,0-0.7-0.9-1.6-0.9s-1.3,0.6-1.3,1.3
	c0,1.4,1.4,2.3,1.4,3.4c0,0.5-0.3,0.6-0.5,0.6c-0.1,0-0.3-0.1-0.4-0.1c0-0.1,0.1-0.2,0.1-0.4c0-0.4-0.3-0.7-0.5-0.7
	s-0.3,0.1-0.4,0.2c-0.5-0.5-0.9-1.2-0.9-1.9c0-0.3,0.1-0.4,0.2-0.4c0.2,0,0.2,0.3,0.6,0.3c0.2,0,0.4-0.3,0.4-0.5h-0.1
	c-0.5,0-0.4-0.4-1-0.4c-0.2,0-0.9,0.1-0.9,1.1c0,1.5,1.8,1.9,1.4,3.1c0.8-0.1,0.8,0.6,0.8,2C20.9,61.2,22.4,60.7,25,60.7L25,60.7z
	 M25,54.3c-0.4,0-0.7,0.3-0.7,0.7s0.3,0.7,0.7,0.7c0.4,0,0.7-0.3,0.7-0.7S25.4,54.3,25,54.3L25,54.3z M24.7,50.2
	c0,0.2,0.1,0.3,0.1,0.4c0.1,0.2,0.1,0.2,0,0.3s-0.1,0.1-0.3,0c-0.1-0.1-0.2-0.1-0.4-0.1c-0.3,0-0.4,0.2-0.4,0.3s0.1,0.3,0.4,0.3
	c0.2,0,0.3-0.1,0.4-0.1c0.2-0.1,0.2-0.1,0.3,0c0.1,0.1,0,0.6-0.1,1C24.2,52.4,24,52.8,24,53c0,0.5,0.6,0.9,0.9,1
	c0.3-0.2,0.9-0.5,0.9-1c0-0.2-0.2-0.6-0.7-0.7c-0.1-0.4-0.1-1-0.1-1c0.1-0.1,0.1-0.1,0.3,0c0.1,0.1,0.2,0.1,0.4,0.1
	c0.3,0,0.4-0.2,0.4-0.3s-0.1-0.3-0.4-0.3c-0.2,0-0.3,0.1-0.4,0.1c-0.2,0.1-0.2,0.1-0.3,0c-0.1-0.1-0.1-0.1,0-0.3
	c0.1-0.1,0.1-0.2,0.1-0.4c0-0.3-0.2-0.4-0.3-0.4C24.9,49.8,24.7,49.9,24.7,50.2L24.7,50.2z M38.1,60.9c-0.1,0.6-0.7,0.7-1,0.3
	C37.1,60.9,37.4,60.9,38.1,60.9L38.1,60.9z M42.2,64.5C42.2,64.4,42.2,64.4,42.2,64.5c-0.6,0.2-0.9-0.4-0.8-1c0.1-0.3,0.4-1.3-0.4-2
	c-0.7,0.4-1.2-0.3-1.1-0.6c0-0.1,0.1-0.1,0.1,0c0,0.2,0.2,0.4,0.4,0.4c0.3,0,0.8-0.3,0.9-0.8c-0.8-0.5-2-0.3-2.3,0.6
	c0,0.1-0.2,0.1-0.2,0s0-0.6,0.6-0.9c0.5-0.2,0.3-0.6,0.2-0.8c-0.1-0.1-0.2,0-0.1,0c0.2,0.3-0.2,0.5-0.8,0.4
	c-1.2-0.2-1.6,0.3-1.7,0.6c-0.3,0.1-1.3,0.6-1.3,0.9c0,0.1,0.1,0.2,0.2,0.3c0,0,0,0.4,0.3,0.7c1.3-0.8,1.6,0,1.5,0.5
	c0,0-0.2,0.2-1.1,0.2c0,0,0,0.3,0.1,0.4c0,0-0.2,0.2-0.1,0.5c0,0,0.4-0.3,1.2-0.3c0,0,0.5,0.7-1.3,1.1c-1.8,0.3-2.4,2.1-2.4,3
	c0,0,0,0.1,0.1,0.1c1.5-0.3,2.1,1.2,4,1.1c-0.2-0.4,0-0.9,0-0.9c0.2,0.4,0.5,0.7,0.8,0.8c0.7-0.2,1.1-0.5,1.2-0.7
	c0,0-0.7-0.6-0.2-1.7c0,0,0.5,0.7,1.4,0.3c0.1,0,0.1-0.1,0-0.1C40.1,66.2,41,65.1,41,65C41.7,65.3,42.2,64.9,42.2,64.5L42.2,64.5z
	 M35.1,62.7c-0.4,0-0.7-0.2-0.8-0.5c0-0.1-0.1-0.1-0.1,0c-0.2,0.6,0.3,0.9,0.7,0.9c0.5,0,0.8-0.4,1.5-0.5c0.3-0.1,0.5,0,0.5-0.1
	s-0.5-0.1-0.5-0.1C35.6,62.6,35.5,62.7,35.1,62.7L35.1,62.7z M13,61.2c-0.3,0.4-0.9,0.3-1-0.3C12.7,60.9,13,60.9,13,61.2L13,61.2z
	 M8.9,65c0.1,0.1,0.9,1.2-0.4,1.6c-0.1,0-0.1,0.1,0,0.1c0.9,0.4,1.4-0.3,1.4-0.3c0.5,1.1-0.3,1.7-0.3,1.7c0.1,0.2,0.5,0.5,1.2,0.7
	c0.3-0.1,0.6-0.4,0.8-0.8c0,0,0.2,0.5,0,0.9c1.9,0.2,2.6-1.3,4-1.1c0,0,0.1,0,0.1-0.1c0-0.9-0.6-2.7-2.4-3S12,63.6,12,63.6
	c0.8,0,1.2,0.3,1.2,0.3c0.1-0.2-0.1-0.5-0.1-0.5c0.1-0.1,0.1-0.4,0.1-0.4c-0.9,0-1.1-0.2-1.1-0.2c-0.1-0.5,0.2-1.2,1.5-0.5
	c0.3-0.3,0.3-0.7,0.3-0.7c0.1,0,0.2-0.2,0.2-0.3c0-0.2-1-0.8-1.3-0.9c-0.1-0.3-0.5-0.8-1.7-0.6c-0.6,0.1-1-0.1-0.8-0.4
	c0-0.1-0.1-0.1-0.1,0c-0.1,0.1-0.3,0.5,0.2,0.8C11,60.5,11,61,11,61.1c0,0.1-0.1,0.1-0.2,0c-0.3-0.9-1.5-1.1-2.3-0.6
	c0,0.5,0.6,0.8,0.9,0.8c0.2,0,0.4-0.2,0.4-0.4c0-0.1,0.1-0.1,0.1,0c0.1,0.3-0.4,1-1.1,0.6c-0.7,0.7-0.4,1.7-0.4,2
	c0.1,0.6-0.2,1.2-0.7,0.9H7.6C7.8,64.9,8.3,65.3,8.9,65L8.9,65z M13.7,62.6c-0.1,0-0.5,0-0.5,0.1s0.2,0,0.5,0.1
	c0.7,0.1,1,0.5,1.5,0.5c0.4,0,0.9-0.3,0.7-0.9c0-0.1-0.1-0.1-0.1,0c-0.1,0.3-0.4,0.5-0.8,0.5C14.5,62.7,14.4,62.6,13.7,62.6
	L13.7,62.6z M29,66.7h0.9v-2.4H29V66.7z M25,77.4h0.9V75H25V77.4z"/>
<g class="st2">
	<path d="M66.3,59.7c0-1.2,0.1-2.2,0.4-3.1c0.3-0.9,0.7-1.7,1.1-2.2c0.5-0.6,1-1,1.6-1.3c0.6-0.3,1.2-0.4,1.8-0.4
		c0.8,0,1.5,0.1,2,0.3L72.9,55h-0.5l-0.1-0.4c-0.1-0.4-0.2-0.7-0.4-0.9c-0.2-0.2-0.5-0.3-0.9-0.3c-0.8,0-1.6,0.5-2.2,1.6
		c-0.7,1-1,2.5-1,4.4c0,1.1,0.2,1.9,0.6,2.4c0.4,0.6,0.9,0.8,1.4,0.8c0.5,0,0.9-0.1,1.2-0.3s0.6-0.5,0.8-1l0.2-0.4h0.5l-0.3,2
		c-0.8,0.3-1.6,0.5-2.6,0.5c-1,0-1.8-0.3-2.3-1C66.5,62,66.3,61,66.3,59.7z"/>
	<path d="M73.8,60.8c0-1.8,0.4-3.1,1.1-4.1c0.7-1,1.5-1.5,2.4-1.5c1.2,0,1.8,0.6,1.8,1.7c0,1-0.4,1.7-1.2,2.3s-1.7,0.9-2.8,0.9
		c0,0.9,0.1,1.6,0.4,1.9c0.2,0.3,0.6,0.5,1.2,0.5c0.3,0,0.7-0.1,1-0.2c0.4-0.2,0.6-0.3,0.8-0.6c0.1,0.1,0.2,0.2,0.2,0.4
		c0,0.4-0.2,0.7-0.7,1c-0.5,0.3-1,0.4-1.7,0.4c-0.7,0-1.3-0.2-1.7-0.7C74,62.4,73.8,61.7,73.8,60.8z M75.1,59.3
		c0.8,0,1.4-0.2,1.9-0.6s0.7-0.9,0.7-1.5c0-0.7-0.3-1.1-0.8-1.1c-0.4,0-0.8,0.3-1.2,0.9C75.3,57.7,75.1,58.4,75.1,59.3z"/>
	<path d="M79.8,55.9v-0.3c0.5-0.2,1-0.3,1.6-0.3c0.2,0,0.5,0,0.7,0.1l-0.5,2.5h0c0.4-0.8,0.8-1.5,1.4-2c0.5-0.5,1.1-0.7,1.6-0.7
		c0.4,0,0.7,0.1,0.9,0.4c0.2,0.3,0.4,0.6,0.4,1.1c0,0.2-0.1,0.9-0.3,2.1l-0.3,1.8c-0.1,0.7-0.1,1.1-0.1,1.4c0,0.5,0.3,0.8,0.8,0.9
		v0.3c-0.4,0.2-0.8,0.3-1.3,0.3c-0.6,0-0.8-0.3-0.8-0.8c0-0.3,0.1-0.9,0.2-1.8l0.3-1.9c0.1-0.7,0.2-1.3,0.2-1.7c0-0.7-0.2-1-0.7-1
		c-0.5,0-1,0.4-1.5,1.2c-0.5,0.8-0.8,1.8-0.8,2.9l-0.1,2.8H80l0.8-7.2L79.8,55.9z"/>
	<path d="M87.4,56.4v-0.2c0.6-0.8,1.3-1.4,2.3-2h0.2l-0.3,1.4h0.5c0.4,0,0.9,0,1.3-0.1c0,0.4-0.1,0.6-0.3,0.8
		c-0.2,0.2-0.6,0.2-1.1,0.2h-0.5l-0.3,1.7c-0.2,1.3-0.3,2.3-0.3,2.9c0,0.5,0.1,0.9,0.3,1.2s0.5,0.4,0.9,0.4c0.2,0,0.4,0,0.7-0.1v0.3
		c-0.1,0.2-0.3,0.4-0.5,0.5c-0.3,0.2-0.6,0.2-1,0.2c-0.5,0-1-0.2-1.3-0.5c-0.3-0.3-0.4-0.8-0.4-1.5c0-1.1,0.2-2.4,0.5-4.1l0.2-1.1
		C88.1,56.4,87.8,56.4,87.4,56.4z"/>
	<path d="M91.6,55.9v-0.3c0.5-0.2,1-0.3,1.6-0.3c0.3,0,0.5,0,0.7,0.1l-0.5,2.4h0l0.9-1.5c0.4-0.7,0.9-1,1.4-1.1
		c0.4,0,0.6,0.2,0.6,0.6c0,0.3-0.1,0.6-0.2,0.9c-0.2,0-0.3-0.1-0.5-0.1c-0.6,0-1.1,0.3-1.5,1s-0.7,1.8-0.7,3.2l-0.1,2.4h-1.4
		l0.8-7.2L91.6,55.9z"/>
	<path d="M96.4,60.7c0-1.7,0.4-3,1.2-4c0.8-1,1.8-1.5,3-1.5c0.6,0,1.2,0.1,1.8,0.3l-0.6,2.9c-0.2,1-0.4,2-0.4,3.1
		c0,0.5,0.1,0.9,0.2,1c0.1,0.2,0.3,0.3,0.6,0.3v0.3c-0.5,0.2-1,0.2-1.5,0.2c-0.2,0-0.4,0-0.7-0.1l0.4-2.5h0
		c-0.3,0.8-0.7,1.5-1.2,1.9s-0.9,0.7-1.4,0.7c-0.4,0-0.8-0.3-1.1-0.8C96.5,62.3,96.4,61.6,96.4,60.7z M97.6,60.5
		c0,0.7,0.1,1.1,0.2,1.5c0.2,0.3,0.4,0.5,0.6,0.5c0.4,0,0.8-0.3,1.2-0.9c0.4-0.6,0.7-1.4,0.9-2.5l0.5-2.8c-0.2-0.1-0.5-0.1-0.9-0.1
		c-0.7,0-1.3,0.4-1.8,1.1C97.9,58.1,97.6,59.1,97.6,60.5z"/>
	<path d="M103.4,60.7c0-1.7,0.4-3,1.2-4c0.8-1,1.8-1.5,3-1.5c0.6,0,1.2,0.1,1.8,0.3l-0.6,2.9c-0.2,1-0.4,2-0.4,3.1
		c0,0.5,0.1,0.9,0.2,1c0.1,0.2,0.3,0.3,0.6,0.3v0.3c-0.5,0.2-1,0.2-1.5,0.2c-0.2,0-0.4,0-0.7-0.1l0.4-2.5h0
		c-0.3,0.8-0.7,1.5-1.2,1.9s-0.9,0.7-1.4,0.7c-0.4,0-0.8-0.3-1.1-0.8C103.6,62.3,103.4,61.6,103.4,60.7z M104.7,60.5
		c0,0.7,0.1,1.1,0.2,1.5c0.2,0.3,0.4,0.5,0.6,0.5c0.4,0,0.8-0.3,1.2-0.9c0.4-0.6,0.7-1.4,0.9-2.5l0.5-2.8c-0.2-0.1-0.5-0.1-0.9-0.1
		c-0.7,0-1.3,0.4-1.8,1.1C105,58.1,104.7,59.1,104.7,60.5z"/>
	<path d="M110.8,62.8c0-0.4,0.1-1.2,0.2-2.2l1.2-8.2l-1-0.3v-0.3c0.5-0.2,1.1-0.3,1.7-0.3c0.3,0,0.6,0,0.8,0.1l-1.2,8.7
		c-0.1,0.6-0.1,1.2-0.1,1.8c0,0.5,0.3,0.8,0.8,1v0.3c-0.4,0.2-0.8,0.2-1.3,0.2C111.1,63.5,110.8,63.3,110.8,62.8z"/>
	<path d="M116.3,63.4v-0.3c0.3-0.2,0.5-0.4,0.6-0.6l2.1-8.9l-0.9-0.2v-0.4c0.5-0.1,1.1-0.2,1.7-0.2h0.5l1.5,7.9l0,0l2.7-7.9h0.4
		c0.6,0,1.2,0,1.6,0.1v0.4l-0.6,0.2l0.2,9.2l1,0.3v0.3c-0.5,0.2-1,0.3-1.4,0.2c-0.6,0-1.1-0.1-1.5-0.2v-0.3c0.4-0.2,0.5-0.5,0.5-0.9
		l-0.1-7.4h0l-3,8.7l-0.5,0l-1.6-8.7h0l-1.6,7.8l0.9,0.3v0.3c-0.4,0.2-0.9,0.3-1.4,0.2C117,63.5,116.6,63.5,116.3,63.4z"/>
	<path d="M127.9,60.7c0-1.7,0.4-3,1.2-4c0.8-1,1.8-1.5,3-1.5c0.6,0,1.2,0.1,1.8,0.3l-0.6,2.9c-0.2,1-0.4,2-0.4,3.1
		c0,0.5,0.1,0.9,0.2,1c0.1,0.2,0.3,0.3,0.6,0.3v0.3c-0.5,0.2-1,0.2-1.5,0.2c-0.2,0-0.4,0-0.7-0.1l0.4-2.5h0
		c-0.3,0.8-0.7,1.5-1.2,1.9s-0.9,0.7-1.4,0.7c-0.4,0-0.8-0.3-1.1-0.8C128.1,62.3,127.9,61.6,127.9,60.7z M129.2,60.5
		c0,0.7,0.1,1.1,0.2,1.5c0.2,0.3,0.4,0.5,0.6,0.5c0.4,0,0.8-0.3,1.2-0.9s0.7-1.4,0.9-2.5l0.5-2.8c-0.2-0.1-0.5-0.1-0.9-0.1
		c-0.7,0-1.3,0.4-1.8,1.1S129.2,59.1,129.2,60.5z"/>
	<path d="M135.1,60.6c0-1.7,0.3-3,1-4c0.7-0.9,1.5-1.4,2.4-1.4c0.5,0,0.8,0.1,1.1,0.2c0.2,0.1,0.4,0.3,0.4,0.5
		c0,0.4-0.1,0.8-0.4,1.2c-0.4-0.6-0.9-1-1.4-1c-0.5,0-0.9,0.4-1.3,1.1s-0.6,1.8-0.6,3.1c0,0.7,0.1,1.3,0.4,1.6
		c0.2,0.4,0.5,0.6,0.9,0.6c0.6,0,1.2-0.3,1.7-1c0.1,0.1,0.1,0.3,0.2,0.5c0,0.5-0.2,0.8-0.6,1.2s-0.9,0.5-1.7,0.5
		c-0.6,0-1.1-0.3-1.5-0.8S135.1,61.6,135.1,60.6z"/>
	<path d="M140.5,63.4l0.7-5.4l0.5-5.7l-1-0.3v-0.3c0.5-0.2,1.1-0.3,1.7-0.3c0.3,0,0.5,0,0.8,0.1l-0.9,6.1l0,0
		c0.4-0.7,0.8-1.3,1.3-1.7s1-0.6,1.5-0.6c0.4,0,0.7,0.1,1,0.4c0.2,0.3,0.4,0.6,0.4,1.1c0,0.4-0.1,1.1-0.2,2.1l-0.3,1.7
		c-0.1,0.5-0.2,1-0.2,1.4c0,0.3,0.1,0.5,0.2,0.6c0.1,0.1,0.3,0.2,0.6,0.3v0.3c-0.4,0.2-0.8,0.3-1.3,0.3c-0.5,0-0.8-0.3-0.8-0.8
		c0-0.3,0.1-0.9,0.2-1.8l0.3-1.8c0.1-0.7,0.1-1.2,0.1-1.7c0-0.7-0.2-1-0.7-1c-0.5,0-0.9,0.4-1.4,1.1c-0.5,0.7-0.7,1.6-0.8,2.7
		l-0.2,3.2H140.5z"/>
	<path d="M148,56.4v-0.2c0.6-0.8,1.3-1.4,2.3-2h0.2l-0.3,1.4h0.5c0.4,0,0.9,0,1.3-0.1c0,0.4-0.1,0.6-0.3,0.8
		c-0.2,0.2-0.6,0.2-1.1,0.2h-0.5l-0.3,1.7c-0.2,1.3-0.3,2.3-0.3,2.9c0,0.5,0.1,0.9,0.3,1.2c0.2,0.3,0.5,0.4,0.9,0.4
		c0.2,0,0.4,0,0.7-0.1v0.3c-0.1,0.2-0.3,0.4-0.5,0.5c-0.3,0.2-0.6,0.2-1,0.2c-0.5,0-1-0.2-1.3-0.5c-0.3-0.3-0.4-0.8-0.4-1.5
		c0-1.1,0.2-2.4,0.5-4.1l0.2-1.1C148.6,56.4,148.3,56.4,148,56.4z"/>
	<path d="M152.2,55.9v-0.3c0.5-0.2,1.1-0.3,1.7-0.3c0.3,0,0.6,0,0.8,0.1l-0.7,4.9c-0.1,0.7-0.1,1.2-0.2,1.8c0,0.5,0.2,0.8,0.7,1v0.3
		c-0.4,0.2-0.8,0.2-1.2,0.2c-0.5,0-0.8-0.3-0.8-0.8c0-0.2,0.1-1,0.2-2.2l0.5-3.4l0.1-1L152.2,55.9z M153.4,52.9
		c0-0.3,0.1-0.5,0.3-0.7c0.2-0.2,0.4-0.3,0.6-0.3c0.2,0,0.4,0.1,0.5,0.2s0.2,0.3,0.2,0.6c0,0.3-0.1,0.5-0.3,0.7
		c-0.2,0.2-0.4,0.3-0.6,0.3c-0.2,0-0.4-0.1-0.6-0.2C153.5,53.3,153.4,53.1,153.4,52.9z"/>
	<path d="M154.6,65.9c0-0.4,0.2-0.7,0.5-1c0.3-0.3,0.7-0.4,1.1-0.4c-0.3,0.3-0.4,0.7-0.4,1.1c0,0.3,0.1,0.6,0.4,0.8
		c0.3,0.2,0.6,0.3,1.1,0.3c0.6,0,1.2-0.2,1.6-0.7s0.7-1.2,0.8-2.1L160,61h0c-0.3,0.8-0.7,1.4-1.2,1.9c-0.5,0.5-0.9,0.7-1.4,0.7
		c-0.4,0-0.8-0.3-1.1-0.8c-0.3-0.5-0.5-1.2-0.5-2.2c0-1.6,0.4-2.9,1.2-3.9c0.8-1,1.8-1.5,2.9-1.5c0.6,0,1.3,0.1,1.9,0.3l-0.6,3.2
		c-0.2,0.9-0.3,2-0.2,3.4c0,1.8-0.4,3.1-1.1,4.1c-0.8,0.9-1.7,1.4-2.9,1.4c-0.7,0-1.3-0.1-1.8-0.4S154.6,66.4,154.6,65.9z
		 M157.1,60.5c0,0.7,0.1,1.2,0.2,1.5c0.2,0.3,0.4,0.5,0.6,0.5c0.4,0,0.8-0.3,1.2-0.9c0.4-0.6,0.7-1.5,0.8-2.6l0.4-2.7
		c-0.2,0-0.5-0.1-0.8-0.1c-0.7,0-1.3,0.4-1.7,1.1C157.4,58,157.1,59.1,157.1,60.5z"/>
	<path d="M162.9,55.9v-0.3c0.5-0.2,1.1-0.3,1.7-0.3c0.3,0,0.6,0,0.8,0.1l-0.7,4.9c-0.1,0.7-0.1,1.2-0.2,1.8c0,0.5,0.2,0.8,0.7,1v0.3
		c-0.4,0.2-0.8,0.2-1.2,0.2c-0.5,0-0.8-0.3-0.8-0.8c0-0.2,0.1-1,0.2-2.2l0.5-3.4l0.1-1L162.9,55.9z M164.1,52.9
		c0-0.3,0.1-0.5,0.3-0.7c0.2-0.2,0.4-0.3,0.6-0.3c0.2,0,0.4,0.1,0.5,0.2s0.2,0.3,0.2,0.6c0,0.3-0.1,0.5-0.3,0.7s-0.4,0.3-0.6,0.3
		c-0.2,0-0.4-0.1-0.6-0.2S164.1,53.1,164.1,52.9z"/>
	<path d="M166.5,55.9v-0.3c0.5-0.2,1-0.3,1.6-0.3c0.2,0,0.5,0,0.7,0.1l-0.5,2.5h0c0.4-0.8,0.8-1.5,1.4-2c0.5-0.5,1.1-0.7,1.6-0.7
		c0.4,0,0.7,0.1,0.9,0.4c0.2,0.3,0.4,0.6,0.4,1.1c0,0.2-0.1,0.9-0.3,2.1l-0.3,1.8c-0.1,0.7-0.1,1.1-0.1,1.4c0,0.5,0.3,0.8,0.8,0.9
		v0.3c-0.4,0.2-0.8,0.3-1.3,0.3c-0.6,0-0.8-0.3-0.8-0.8c0-0.3,0.1-0.9,0.2-1.8l0.3-1.9c0.1-0.7,0.2-1.3,0.2-1.7c0-0.7-0.2-1-0.7-1
		c-0.5,0-1,0.4-1.5,1.2c-0.5,0.8-0.8,1.8-0.8,2.9l-0.1,2.8h-1.4l0.8-7.2L166.5,55.9z"/>
	<path d="M172.8,65.9c0-0.4,0.2-0.7,0.5-1c0.3-0.3,0.7-0.4,1.1-0.4c-0.3,0.3-0.4,0.7-0.4,1.1c0,0.3,0.1,0.6,0.4,0.8
		c0.3,0.2,0.6,0.3,1.1,0.3c0.6,0,1.2-0.2,1.6-0.7c0.4-0.5,0.7-1.2,0.8-2.1l0.3-2.9h0c-0.3,0.8-0.7,1.4-1.2,1.9
		c-0.5,0.5-0.9,0.7-1.4,0.7c-0.4,0-0.8-0.3-1.1-0.8c-0.3-0.5-0.5-1.2-0.5-2.2c0-1.6,0.4-2.9,1.2-3.9c0.8-1,1.8-1.5,2.9-1.5
		c0.6,0,1.3,0.1,1.9,0.3l-0.6,3.2c-0.2,0.9-0.3,2-0.2,3.4c0,1.8-0.4,3.1-1.1,4.1c-0.8,0.9-1.7,1.4-2.9,1.4c-0.7,0-1.3-0.1-1.8-0.4
		C173,66.8,172.8,66.4,172.8,65.9z M175.3,60.5c0,0.7,0.1,1.2,0.2,1.5c0.2,0.3,0.4,0.5,0.6,0.5c0.4,0,0.8-0.3,1.2-0.9
		c0.4-0.6,0.7-1.5,0.8-2.6l0.4-2.7c-0.2,0-0.5-0.1-0.8-0.1c-0.7,0-1.3,0.4-1.7,1.1C175.6,58,175.3,59.1,175.3,60.5z"/>
	<path d="M181.1,60.8c0-1.8,0.4-3.1,1.1-4.1c0.7-1,1.5-1.5,2.4-1.5c1.2,0,1.8,0.6,1.8,1.7c0,1-0.4,1.7-1.2,2.3
		c-0.8,0.6-1.7,0.9-2.8,0.9c0,0.9,0.1,1.6,0.4,1.9c0.2,0.3,0.6,0.5,1.2,0.5c0.3,0,0.7-0.1,1-0.2c0.4-0.2,0.6-0.3,0.8-0.6
		c0.1,0.1,0.2,0.2,0.2,0.4c0,0.4-0.2,0.7-0.7,1c-0.5,0.3-1.1,0.4-1.7,0.4c-0.7,0-1.3-0.2-1.7-0.7C181.3,62.4,181.1,61.7,181.1,60.8z
		 M182.4,59.3c0.8,0,1.4-0.2,1.9-0.6c0.5-0.4,0.7-0.9,0.7-1.5c0-0.7-0.3-1.1-0.8-1.1c-0.4,0-0.8,0.3-1.2,0.9
		C182.6,57.7,182.4,58.4,182.4,59.3z"/>
	<path d="M187,55.9v-0.3c0.5-0.2,1-0.3,1.6-0.3c0.2,0,0.5,0,0.7,0.1l-0.5,2.5h0c0.4-0.8,0.8-1.5,1.4-2c0.5-0.5,1.1-0.7,1.6-0.7
		c0.4,0,0.7,0.1,0.9,0.4s0.4,0.6,0.4,1.1c0,0.2-0.1,0.9-0.3,2.1l-0.3,1.8c-0.1,0.7-0.1,1.1-0.1,1.4c0,0.5,0.3,0.8,0.8,0.9v0.3
		c-0.4,0.2-0.8,0.3-1.3,0.3c-0.6,0-0.8-0.3-0.8-0.8c0-0.3,0.1-0.9,0.2-1.8l0.3-1.9c0.1-0.7,0.2-1.3,0.2-1.7c0-0.7-0.2-1-0.7-1
		c-0.5,0-1,0.4-1.5,1.2s-0.8,1.8-0.8,2.9l-0.1,2.8h-1.4l0.8-7.2L187,55.9z"/>
	<path d="M197,63.4v-0.3c0.4-0.2,0.6-0.4,0.6-0.7l1-8.8l-0.9-0.3V53c1-0.2,2.1-0.3,3.3-0.3c1,0,1.8,0.2,2.3,0.6s0.8,1,0.8,1.7
		c0,0.8-0.3,1.6-0.8,2.2c-0.6,0.6-1.3,1.1-2.2,1.3l1.8,3c0.5,0.7,1.1,1.2,1.8,1.3v0.4c-0.3,0.2-0.7,0.3-1.2,0.3
		c-0.4,0-0.7-0.1-1-0.3c-0.3-0.2-0.6-0.6-0.9-1.1l-2-3.6v-0.3c0.8,0,1.5-0.3,2.1-0.8s0.9-1.2,0.9-2.1c0-0.5-0.2-0.9-0.5-1.3
		s-0.8-0.5-1.3-0.5c-0.3,0-0.6,0-0.9,0.1l-1.1,9.1l0.9,0.3v0.3c-0.5,0.2-1,0.3-1.5,0.2C197.8,63.5,197.4,63.5,197,63.4z"/>
	<path d="M205.3,60.8c0-1.8,0.4-3.1,1.1-4.1c0.7-1,1.5-1.5,2.4-1.5c1.2,0,1.8,0.6,1.8,1.7c0,1-0.4,1.7-1.2,2.3
		c-0.8,0.6-1.7,0.9-2.8,0.9c0,0.9,0.1,1.6,0.4,1.9c0.2,0.3,0.6,0.5,1.2,0.5c0.3,0,0.7-0.1,1-0.2c0.4-0.2,0.6-0.3,0.8-0.6
		c0.1,0.1,0.2,0.2,0.2,0.4c0,0.4-0.2,0.7-0.7,1c-0.5,0.3-1.1,0.4-1.7,0.4c-0.7,0-1.3-0.2-1.7-0.7C205.5,62.4,205.3,61.7,205.3,60.8z
		 M206.7,59.3c0.8,0,1.4-0.2,1.9-0.6c0.5-0.4,0.7-0.9,0.7-1.5c0-0.7-0.3-1.1-0.8-1.1c-0.4,0-0.8,0.3-1.2,0.9
		C206.9,57.7,206.7,58.4,206.7,59.3z"/>
	<path d="M210,65.9c0-0.4,0.2-0.7,0.5-1c0.3-0.3,0.7-0.4,1.1-0.4c-0.3,0.3-0.4,0.7-0.4,1.1c0,0.3,0.1,0.6,0.4,0.8
		c0.3,0.2,0.6,0.3,1.1,0.3c0.6,0,1.2-0.2,1.6-0.7s0.7-1.2,0.8-2.1l0.3-2.9h0c-0.3,0.8-0.7,1.4-1.2,1.9c-0.5,0.5-0.9,0.7-1.4,0.7
		c-0.4,0-0.8-0.3-1.1-0.8c-0.3-0.5-0.5-1.2-0.5-2.2c0-1.6,0.4-2.9,1.2-3.9c0.8-1,1.8-1.5,2.9-1.5c0.6,0,1.3,0.1,1.9,0.3l-0.6,3.2
		c-0.2,0.9-0.3,2-0.2,3.4c0,1.8-0.4,3.1-1.1,4.1c-0.8,0.9-1.7,1.4-2.9,1.4c-0.7,0-1.3-0.1-1.8-0.4S210,66.4,210,65.9z M212.6,60.5
		c0,0.7,0.1,1.2,0.2,1.5c0.2,0.3,0.4,0.5,0.6,0.5c0.4,0,0.8-0.3,1.2-0.9c0.4-0.6,0.7-1.5,0.8-2.6l0.4-2.7c-0.2,0-0.5-0.1-0.8-0.1
		c-0.7,0-1.3,0.4-1.7,1.1C212.8,58,212.6,59.1,212.6,60.5z"/>
	<path d="M218.3,55.9v-0.3c0.5-0.2,1.1-0.3,1.7-0.3c0.3,0,0.6,0,0.8,0.1l-0.7,4.9c-0.1,0.7-0.1,1.2-0.2,1.8c0,0.5,0.2,0.8,0.7,1v0.3
		c-0.4,0.2-0.8,0.2-1.2,0.2c-0.5,0-0.8-0.3-0.8-0.8c0-0.2,0.1-1,0.2-2.2l0.5-3.4l0.1-1L218.3,55.9z M219.5,52.9
		c0-0.3,0.1-0.5,0.3-0.7c0.2-0.2,0.4-0.3,0.6-0.3c0.2,0,0.4,0.1,0.5,0.2s0.2,0.3,0.2,0.6c0,0.3-0.1,0.5-0.3,0.7s-0.4,0.3-0.6,0.3
		c-0.2,0-0.4-0.1-0.6-0.2S219.5,53.1,219.5,52.9z"/>
	<path d="M221.3,62.7c0-0.2,0.1-0.5,0.3-0.7c0.5,0.5,1,0.7,1.6,0.7c0.4,0,0.7-0.1,1-0.3c0.3-0.2,0.4-0.5,0.4-0.8
		c0-0.3-0.1-0.5-0.2-0.8c-0.1-0.2-0.4-0.5-0.8-0.9l-0.6-0.5c-0.4-0.3-0.6-0.6-0.8-0.9c-0.1-0.3-0.2-0.6-0.2-1c0-0.6,0.2-1.1,0.7-1.5
		c0.5-0.4,1.1-0.7,1.9-0.7c0.6,0,1,0.1,1.3,0.2c0.3,0.2,0.5,0.4,0.5,0.7c0,0.4-0.1,0.6-0.3,0.9c-0.5-0.6-1.1-0.8-1.8-0.8
		c-0.4,0-0.6,0.1-0.8,0.3s-0.3,0.4-0.3,0.7c0,0.2,0.1,0.5,0.2,0.7c0.1,0.2,0.4,0.5,0.8,0.9l0.6,0.6c0.4,0.4,0.7,0.7,0.8,1
		s0.2,0.6,0.2,1c0,0.7-0.3,1.2-0.9,1.7c-0.6,0.5-1.3,0.7-2.2,0.7C221.8,63.6,221.3,63.3,221.3,62.7z"/>
	<path d="M227.3,56.4v-0.2c0.6-0.8,1.3-1.4,2.3-2h0.2l-0.3,1.4h0.5c0.4,0,0.9,0,1.3-0.1c0,0.4-0.1,0.6-0.3,0.8
		c-0.2,0.2-0.6,0.2-1.1,0.2h-0.5l-0.3,1.7c-0.2,1.3-0.3,2.3-0.3,2.9c0,0.5,0.1,0.9,0.3,1.2s0.5,0.4,0.9,0.4c0.2,0,0.4,0,0.7-0.1v0.3
		c-0.1,0.2-0.3,0.4-0.5,0.5c-0.3,0.2-0.6,0.2-1,0.2c-0.5,0-1-0.2-1.3-0.5s-0.4-0.8-0.4-1.5c0-1.1,0.2-2.4,0.5-4.1l0.2-1.1
		C227.9,56.4,227.6,56.4,227.3,56.4z"/>
	<path d="M231.5,60.8c0-1.8,0.4-3.1,1.1-4.1c0.7-1,1.5-1.5,2.4-1.5c1.2,0,1.8,0.6,1.8,1.7c0,1-0.4,1.7-1.2,2.3s-1.7,0.9-2.8,0.9
		c0,0.9,0.1,1.6,0.4,1.9c0.2,0.3,0.6,0.5,1.2,0.5c0.3,0,0.7-0.1,1-0.2c0.4-0.2,0.6-0.3,0.8-0.6c0.1,0.1,0.2,0.2,0.2,0.4
		c0,0.4-0.2,0.7-0.7,1c-0.5,0.3-1,0.4-1.7,0.4c-0.7,0-1.3-0.2-1.7-0.7C231.7,62.4,231.5,61.7,231.5,60.8z M232.8,59.3
		c0.8,0,1.4-0.2,1.9-0.6s0.7-0.9,0.7-1.5c0-0.7-0.3-1.1-0.8-1.1c-0.4,0-0.8,0.3-1.2,0.9C233,57.7,232.8,58.4,232.8,59.3z"/>
	<path d="M237.4,55.9v-0.3c0.5-0.2,1-0.3,1.6-0.3c0.3,0,0.5,0,0.7,0.1l-0.5,2.4h0l0.9-1.5c0.4-0.7,0.9-1,1.4-1.1
		c0.4,0,0.6,0.2,0.6,0.6c0,0.3-0.1,0.6-0.2,0.9c-0.2,0-0.3-0.1-0.5-0.1c-0.6,0-1.1,0.3-1.5,1s-0.7,1.8-0.7,3.2l-0.1,2.4h-1.4
		l0.8-7.2L237.4,55.9z"/>
</g>
</svg>
